<svg xmlns="http://www.w3.org/2000/svg" x="0px" y="0px" width="100" height="100" viewBox="0,0,256,256">
<g fill-opacity="0" fill="#dddddd" fill-rule="nonzero" stroke="none" stroke-width="1" stroke-linecap="butt" stroke-linejoin="miter" stroke-miterlimit="10" stroke-dasharray="" stroke-dashoffset="0" font-family="none" font-weight="none" font-size="none" text-anchor="none" style="mix-blend-mode: normal"><path d="M0,256v-256h256v256z" id="bgRectangle"></path></g><g fill="#111827" fill-rule="nonzero" stroke="none" stroke-width="1" stroke-linecap="butt" stroke-linejoin="miter" stroke-miterlimit="10" stroke-dasharray="" stroke-dashoffset="0" font-family="none" font-weight="none" font-size="none" text-anchor="none" style="mix-blend-mode: normal"><g transform="scale(16,16)"><path d="M5,1c-2.209,0 -4,1.791 -4,4v6c0,2.209 1.791,4 4,4h6c2.209,0 4,-1.791 4,-4v-6c0,-2.209 -1.791,-4 -4,-4zM5,2h6c1.657,0 3,1.343 3,3v6c0,1.657 -1.343,3 -3,3h-6c-1.657,0 -3,-1.343 -3,-3v-6c0,-1.657 1.343,-3 3,-3zM5,3c-1.105,0 -2,0.895 -2,2v6c0,1.105 0.895,2 2,2h6c1.105,0 2,-0.895 2,-2v-6c0,-1.105 -0.895,-2 -2,-2zM11.5,4c0.276,0 0.5,0.224 0.5,0.5c0,0.276 -0.224,0.5 -0.5,0.5c-0.276,0 -0.5,-0.224 -0.5,-0.5c0,-0.276 0.224,-0.5 0.5,-0.5zM8,5c1.657,0 3,1.343 3,3c0,1.657 -1.343,3 -3,3c-1.657,0 -3,-1.343 -3,-3c0,-1.657 1.343,-3 3,-3zM8,6c-1.10457,0 -2,0.89543 -2,2c0,1.10457 0.89543,2 2,2c1.10457,0 2,-0.89543 2,-2c0,-1.10457 -0.89543,-2 -2,-2z"></path></g></g>
</svg>